# xmcd
# 
# Track frame offsets:
#     150
#     13067
#     24165
#     37197
#     49727
#     63135
#     74822
#     86810
#     98350
#     111325
#     122627
#     133785
#     144490
#     158175
#     171352
#     184222
#     204702
#     221182
# 
# Disc length: 3123
# 
# Revision: 3
# Processed by: cddbd v1.5.2PL0 Copyright (c) Steve Scherf et al.
# Submitted via: fre:ac v1.0.31
# 
DISCID=0f0c3112
DTITLE=Columbia Blues - The Best Of Jimmy Reed
DYEAR=0
DGENRE=Blues
TTITLE0=Honest I Do
TTITLE1=Baby What You Want Me To Do
TTITLE2=Shame Shame Shame
TTITLE3=Bright Lights, Big City
TTITLE4=The Sun Is Shinin'
TTITLE5=Close Together
TTITLE6=Hush Hush
TTITLE7=Good Lover
TTITLE8=Big Boss Man
TTITLE9=Aw Shucks, Hush Your Mouth
TTITLE10=Down In Virginia
TTITLE11=Found Love
TTITLE12=Mary Mary
TTITLE13=Oh John
TTITLE14=Caress Me Baby
TTITLE15=You Can Run, But You Can't Hide
TTITLE16=Cold And Lonesome
TTITLE17=Upside The Wall
EXTD=MOTD 9065\n\nSubmitted 6/5/97\n[Jmccoy@efn.org]
EXTT0=
EXTT1=
EXTT2=
EXTT3=
EXTT4=
EXTT5=
EXTT6=
EXTT7=
EXTT8=
EXTT9=
EXTT10=
EXTT11=
EXTT12=
EXTT13=
EXTT14=
EXTT15=
EXTT16=
EXTT17=
PLAYORDER=
